<svg width="35" height="32" viewBox="0 0 35 32" fill="none" xmlns="http://www.w3.org/2000/svg">
<g clip-path="url(#clip0_201_2)">
<path d="M27.4114 30.4866C20.4022 31.1711 13.3929 31.1711 6.38373 30.4866C5.76527 30.3888 3.08527 21 4.32219 21H29.6791C30.916 21 28.236 30.3888 27.4114 30.4866Z" fill="#BAD7DF"/>
<path d="M29.8196 14.2544C36.8196 13.6544 34.7196 23.7544 29.2196 20.3544H4.51962C0.619622 21.7544 -3.18038 15.3544 4.21962 13.6544C17.7196 10.4544 18.6196 20.3544 29.8196 14.2544Z" fill="#FDE2E1"/>
<path d="M19.8859 16.4243C18.9859 16.2243 18.0859 15.8243 17.2859 15.3243C11.8859 12.0243 4.18595 14.8243 4.48595 14.1243C3.18595 11.8243 4.48595 8.92426 8.48595 9.42426C15.6859 8.42426 21.0859 3.42426 23.1859 1.12426C23.4859 0.824264 23.8859 1.12426 23.7859 1.42426C23.2859 3.62426 22.5859 7.32426 23.6859 8.52426C23.9859 8.82426 24.4859 8.82426 24.8859 8.72426C28.5859 7.22426 31.6859 11.9243 29.8859 14.7243C29.9859 14.9243 28.7859 15.6243 26.8859 16.1243C24.6859 17.0243 22.2859 17.0243 19.8859 16.4243Z" fill="#BAD7DF"/>
<path fill-rule="evenodd" clip-rule="evenodd" d="M27.0998 30.4002C20.2998 31.1002 13.4998 31.1002 6.69978 30.4002C6.09978 30.3002 3.49978 20.7002 4.69978 20.7002H29.2998C30.4998 20.7002 27.8998 30.3002 27.0998 30.4002Z" stroke="#201009" stroke-width="0.5" stroke-linecap="round" stroke-linejoin="round"/>
<path d="M25.8995 25.8C25.5995 26.9 25.2995 28 24.9995 28.8" stroke="#201009" stroke-width="0.5" stroke-linecap="round" stroke-linejoin="round"/>
<path d="M26.5998 22.4001C26.4998 22.9001 26.4998 23.4001 26.2998 24.0001" stroke="#201009" stroke-width="0.5" stroke-linecap="round" stroke-linejoin="round"/>
<path d="M8.29961 25.8001C7.99961 24.6001 7.69961 23.3001 7.59961 22.4001" stroke="#201009" stroke-width="0.5" stroke-linecap="round" stroke-linejoin="round"/>
<path d="M9.19961 29.1C8.99961 28.6 8.79961 28 8.59961 27.3" stroke="#201009" stroke-width="0.5" stroke-linecap="round" stroke-linejoin="round"/>
<path d="M4.69975 20.7002C0.799747 22.1002 -2.90025 15.8002 4.39975 14.0002" stroke="#201009" stroke-width="0.5" stroke-linecap="round" stroke-linejoin="round"/>
<path d="M29.8998 14.6003C36.8998 14.0003 34.7998 24.1003 29.2998 20.7003" stroke="#201009" stroke-width="0.5" stroke-linecap="round" stroke-linejoin="round"/>
<path d="M19.7995 16.2001C18.8995 16.0001 17.9995 15.6001 17.1995 15.1001C11.7995 11.8001 4.09952 14.6001 4.39952 13.9001C3.09952 11.6001 4.39952 8.70014 8.39952 9.20014C15.5995 8.20014 20.9995 3.20014 23.0995 0.900143C23.3995 0.600143 23.7995 0.900143 23.6995 1.20014C23.1995 3.40014 22.4995 7.10014 23.5995 8.30014C23.8995 8.60014 24.3995 8.60014 24.7995 8.50014C28.4995 7.00014 31.5995 11.7001 29.7995 14.5001C29.8995 14.7001 28.6995 15.4001 26.7995 15.9001" stroke="#201009" stroke-width="0.5" stroke-linecap="round" stroke-linejoin="round"/>
<path d="M24.8997 16.4001C23.8997 16.5001 22.7997 16.6001 21.6997 16.5001" stroke="#201009" stroke-width="0.5" stroke-linecap="round" stroke-linejoin="round"/>
<path d="M16.9995 26.8V29.1" stroke="#201009" stroke-width="0.5" stroke-linecap="round" stroke-linejoin="round"/>
<path d="M16.9995 22.4001V24.6001" stroke="#201009" stroke-width="0.5" stroke-linecap="round" stroke-linejoin="round"/>
</g>
<defs>
<clipPath id="clip0_201_2">
<rect width="35" height="32" fill="white"/>
</clipPath>
</defs>
</svg>
