<svg width="128" height="128" viewBox="0 0 128 128" fill="none" xmlns="http://www.w3.org/2000/svg">
<g clip-path="url(#clip0_211_2)">
<path d="M64 0C51.342 0 38.9683 3.75353 28.4435 10.7859C17.9188 17.8184 9.71575 27.8138 4.87174 39.5083C0.02773 51.2027 -1.23968 64.071 1.22977 76.4858C3.69922 88.9006 9.79463 100.304 18.7452 109.255C27.6958 118.205 39.0995 124.301 51.5143 126.77C63.929 129.24 76.7973 127.972 88.4918 123.128C100.186 118.284 110.182 110.081 117.214 99.5565C124.246 89.0317 128 76.658 128 64C127.982 47.0318 121.233 30.7639 109.234 18.7656C97.2361 6.76732 80.9682 0.0185286 64 0V0ZM64 122C52.5287 122 41.315 118.598 31.777 112.225C22.2389 105.852 14.8049 96.7938 10.415 86.1956C6.02513 75.5975 4.87654 63.9357 7.11448 52.6848C9.35243 41.4339 14.8764 31.0993 22.9878 22.9878C31.0993 14.8764 41.4339 9.3524 52.6848 7.11445C63.9357 4.87651 75.5976 6.0251 86.1957 10.415C96.7938 14.8049 105.852 22.2389 112.225 31.7769C118.598 41.315 122 52.5287 122 64C121.982 79.3769 115.865 94.1186 104.992 104.992C94.1187 115.865 79.3769 121.981 64 122Z" fill="#92B0B8"/>
<path d="M92.1202 35.79C91.5577 35.2282 90.7952 34.9126 90.0002 34.9126C89.2052 34.9126 88.4427 35.2282 87.8802 35.79L64.0002 59.75L40.1302 35.75C39.5666 35.1864 38.8022 34.8698 38.0052 34.8698C37.2082 34.8698 36.4438 35.1864 35.8802 35.75C35.3166 36.3136 35 37.078 35 37.875C35 38.672 35.3166 39.4364 35.8802 40L59.7602 64L35.8802 88C35.3179 88.5636 35.0026 89.3274 35.0035 90.1235C35.0045 90.9196 35.3216 91.6827 35.8852 92.245C36.4488 92.8073 37.2126 93.1226 38.0087 93.1217C38.8048 93.1207 39.5679 92.8036 40.1302 92.24L64.0002 68.25L87.8802 92.25C88.4438 92.8136 89.2082 93.1302 90.0052 93.1302C90.8022 93.1302 91.5666 92.8136 92.1302 92.25C92.6938 91.6864 93.0104 90.922 93.0104 90.125C93.0104 89.328 92.6938 88.5636 92.1302 88L68.2402 64L92.1302 40C92.6816 39.4375 92.9896 38.6806 92.9877 37.893C92.9858 37.1053 92.6742 36.3499 92.1202 35.79Z" fill="#92B0B8"/>
</g>
<defs>
<clipPath id="clip0_211_2">
<rect width="128" height="128" fill="white"/>
</clipPath>
</defs>
</svg>
